<svg xmlns="http://www.w3.org/2000/svg" xmlns:xlink="http://www.w3.org/1999/xlink" contentStyleType="text/css" data-diagram-type="DESCRIPTION" height="219px" preserveAspectRatio="none" style="width:674px;height:219px;background:#FFFFFF;" version="1.1" viewBox="0 0 674 219" width="674px" zoomAndPan="magnify"><defs/><g><!--entity frontend--><g class="entity" data-entity="frontend" data-source-line="2" data-uid="ent0002" id="entity_frontend"><rect fill="#F1F1F1" height="46.2969" rx="2.5" ry="2.5" style="stroke:#181818;stroke-width:0.5;" width="103.1094" x="7" y="86.5"/><rect fill="#F1F1F1" height="10" style="stroke:#181818;stroke-width:0.5;" width="15" x="90.1094" y="91.5"/><rect fill="#F1F1F1" height="2" style="stroke:#181818;stroke-width:0.5;" width="4" x="88.1094" y="93.5"/><rect fill="#F1F1F1" height="2" style="stroke:#181818;stroke-width:0.5;" width="4" x="88.1094" y="97.5"/><text fill="#000000" font-family="sans-serif" font-size="14" lengthAdjust="spacing" textLength="63.1094" x="22" y="119.4951">Frontend</text></g><!--entity django--><g class="entity" data-entity="django" data-source-line="7" data-uid="ent0003" id="entity_django"><rect fill="#F1F1F1" height="46.2969" rx="2.5" ry="2.5" style="stroke:#181818;stroke-width:0.5;" width="175.7275" x="170.11" y="86.5"/><rect fill="#F1F1F1" height="10" style="stroke:#181818;stroke-width:0.5;" width="15" x="325.8375" y="91.5"/><rect fill="#F1F1F1" height="2" style="stroke:#181818;stroke-width:0.5;" width="4" x="323.8375" y="93.5"/><rect fill="#F1F1F1" height="2" style="stroke:#181818;stroke-width:0.5;" width="4" x="323.8375" y="97.5"/><text fill="#000000" font-family="sans-serif" font-size="14" lengthAdjust="spacing" textLength="135.7275" x="185.11" y="119.4951">Django Web Server</text></g><!--entity jupyter--><g class="entity" data-entity="jupyter" data-source-line="9" data-uid="ent0004" id="entity_jupyter"><rect fill="#F1F1F1" height="46.2969" rx="2.5" ry="2.5" style="stroke:#181818;stroke-width:0.5;" width="140.3926" x="187.78" y="167.5"/><rect fill="#F1F1F1" height="10" style="stroke:#181818;stroke-width:0.5;" width="15" x="308.1726" y="172.5"/><rect fill="#F1F1F1" height="2" style="stroke:#181818;stroke-width:0.5;" width="4" x="306.1726" y="174.5"/><rect fill="#F1F1F1" height="2" style="stroke:#181818;stroke-width:0.5;" width="4" x="306.1726" y="178.5"/><text fill="#000000" font-family="sans-serif" font-size="14" lengthAdjust="spacing" textLength="100.3926" x="202.78" y="200.4951">Jupyter Server</text></g><!--entity notebooks--><g class="entity" data-entity="notebooks" data-source-line="11" data-uid="ent0005" id="entity_notebooks"><path d="M193.46,16 C193.46,6 257.9732,6 257.9732,6 C257.9732,6 322.4864,6 322.4864,16 L322.4864,41.2969 C322.4864,51.2969 257.9732,51.2969 257.9732,51.2969 C257.9732,51.2969 193.46,51.2969 193.46,41.2969 L193.46,16" fill="#F1F1F1" style="stroke:#181818;stroke-width:0.5;"/><path d="M193.46,16 C193.46,26 257.9732,26 257.9732,26 C257.9732,26 322.4864,26 322.4864,16" fill="none" style="stroke:#181818;stroke-width:0.5;"/><text fill="#000000" font-family="sans-serif" font-size="14" lengthAdjust="spacing" textLength="109.0264" x="203.46" y="42.9951">Notebook Store</text></g><!--entity handwriting--><g class="entity" data-entity="handwriting" data-source-line="20" data-uid="ent0009" id="entity_handwriting"><rect fill="#F1F1F1" height="46.2969" rx="2.5" ry="2.5" style="stroke:#181818;stroke-width:0.5;" width="262.9814" x="405.84" y="86.5"/><rect fill="#F1F1F1" height="10" style="stroke:#181818;stroke-width:0.5;" width="15" x="648.8214" y="91.5"/><rect fill="#F1F1F1" height="2" style="stroke:#181818;stroke-width:0.5;" width="4" x="646.8214" y="93.5"/><rect fill="#F1F1F1" height="2" style="stroke:#181818;stroke-width:0.5;" width="4" x="646.8214" y="97.5"/><text fill="#000000" font-family="sans-serif" font-size="14" lengthAdjust="spacing" textLength="222.9814" x="420.84" y="119.4951">Handwriting Recognition Server</text></g><!--entity models--><g class="entity" data-entity="models" data-source-line="25" data-uid="ent0011" id="entity_models"><path d="M459.93,16 C459.93,6 537.3255,6 537.3255,6 C537.3255,6 614.721,6 614.721,16 L614.721,41.2969 C614.721,51.2969 537.3255,51.2969 537.3255,51.2969 C537.3255,51.2969 459.93,51.2969 459.93,41.2969 L459.93,16" fill="#F1F1F1" style="stroke:#181818;stroke-width:0.5;"/><path d="M459.93,16 C459.93,26 537.3255,26 537.3255,26 C537.3255,26 614.721,26 614.721,16" fill="none" style="stroke:#181818;stroke-width:0.5;"/><text fill="#000000" font-family="sans-serif" font-size="14" lengthAdjust="spacing" textLength="134.791" x="469.93" y="42.9951">Pre-Trained Models</text></g><!--link notebooks to django--><g class="link" data-entity-1="notebooks" data-entity-2="django" data-source-line="13" data-uid="lnk6" id="link_notebooks_django"><path d="M257.97,57.6 C257.97,69.14 257.97,68.69 257.97,80.24" fill="none" id="notebooks-django" style="stroke:#181818;stroke-width:1;"/><polygon fill="#181818" points="257.97,51.6,253.97,60.6,257.97,56.6,261.97,60.6,257.97,51.6" style="stroke:#181818;stroke-width:1;"/><polygon fill="#181818" points="257.97,86.24,261.97,77.24,257.97,81.24,253.97,77.24,257.97,86.24" style="stroke:#181818;stroke-width:1;"/></g><!--link django to jupyter--><g class="link" data-entity-1="django" data-entity-2="jupyter" data-source-line="15" data-uid="lnk7" id="link_django_jupyter"><path d="M257.97,139.05 C257.97,150.44 257.97,149.84 257.97,161.24" fill="none" id="django-jupyter" style="stroke:#181818;stroke-width:1;"/><polygon fill="#181818" points="257.97,133.05,253.97,142.05,257.97,138.05,261.97,142.05,257.97,133.05" style="stroke:#181818;stroke-width:1;"/><polygon fill="#181818" points="257.97,167.24,261.97,158.24,257.97,162.24,253.97,158.24,257.97,167.24" style="stroke:#181818;stroke-width:1;"/></g><!--link frontend to django--><g class="link" data-entity-1="frontend" data-entity-2="django" data-source-line="19" data-uid="lnk8" id="link_frontend_django"><path d="M116.39,109.65 C134.56,109.65 143.58,109.65 163.93,109.65" fill="none" id="frontend-django" style="stroke:#181818;stroke-width:1;"/><polygon fill="#181818" points="110.39,109.65,119.39,113.65,115.39,109.65,119.39,105.65,110.39,109.65" style="stroke:#181818;stroke-width:1;"/><polygon fill="#181818" points="169.93,109.65,160.93,105.65,164.93,109.65,160.93,113.65,169.93,109.65" style="stroke:#181818;stroke-width:1;"/></g><!--link django to handwriting--><g class="link" data-entity-1="django" data-entity-2="handwriting" data-source-line="23" data-uid="lnk10" id="link_django_handwriting"><path d="M351.97,109.65 C370.87,109.65 379.27,109.65 399.45,109.65" fill="none" id="django-handwriting" style="stroke:#181818;stroke-width:1;"/><polygon fill="#181818" points="345.97,109.65,354.97,113.65,350.97,109.65,354.97,105.65,345.97,109.65" style="stroke:#181818;stroke-width:1;"/><polygon fill="#181818" points="405.45,109.65,396.45,105.65,400.45,109.65,396.45,113.65,405.45,109.65" style="stroke:#181818;stroke-width:1;"/></g><!--link models to handwriting--><g class="link" data-entity-1="models" data-entity-2="handwriting" data-source-line="27" data-uid="lnk12" id="link_models_handwriting"><path d="M537.33,51.6 C537.33,63.14 537.33,68.69 537.33,80.24" fill="none" id="models-to-handwriting" style="stroke:#181818;stroke-width:1;"/><polygon fill="#181818" points="537.33,86.24,541.33,77.24,537.33,81.24,533.33,77.24,537.33,86.24" style="stroke:#181818;stroke-width:1;"/></g><!--SRC=[LL31JiCm3BtxAwnTSghs0uWJcX0I234a3jKEQUDbsKgCN0FQtwzDspGxsNdl-Jqx7HqLbL62Focw8DHgu0ZrJZWgHNT0s-DnVW1iZRDg6ziJTjpQRgyirfFP3am9u4FrcCS65kgdiusUyOiQt9FyaIHdbz21VldzkIf9oPqd2217RjvOgM6-u1X3cr4LPwW7o6rANwodcg35qSnDgJDPLwt9omKZcfNriutkNuA6wF63MlOnZ9zMxdvQ9L2iC9ZSCUjbxqBLfzWGoU4hE-hwTDrtQi4KKsdf6PyAtjlU0000]--></g></svg>